<?xml version="1.0" standalone="no"?><!DOCTYPE svg PUBLIC "-//W3C//DTD SVG 1.1//EN" "http://www.w3.org/Graphics/SVG/1.1/DTD/svg11.dtd"><svg t="1760441478575" class="icon" viewBox="0 0 1120 1024" version="1.1" xmlns="http://www.w3.org/2000/svg" p-id="13729" xmlns:xlink="http://www.w3.org/1999/xlink" width="218.75" height="200"><path d="M969.344 438.272H156.736c-7.52 0-13.536-3.008-19.552-7.52C66.464 370.56 19.808 266.72 0.256 125.28c-1.504-12.032 4.512-24.064 15.04-30.112s24.064-4.512 33.12 1.504c87.296 67.712 159.52 81.248 221.216 40.64V30.464c0-16.544 13.536-30.112 30.112-30.112h523.68c16.544 0 30.112 13.536 30.112 30.112v105.344c72.224 39.136 138.432 27.072 209.184-37.632 9.024-9.024 22.56-10.528 34.624-4.512 10.528 6.016 18.048 18.048 16.544 30.112-15.04 117.376-55.68 219.712-120.384 302.464-6.016 9.024-15.04 12.032-24.064 12.032zM168.768 378.08h785.536c40.64-54.176 69.216-118.88 87.296-189.6-75.232 42.144-155.008 37.632-233.248-10.528a29.536 29.536 0 0 1-13.536-25.568V60.576H329.824v91.808a31.392 31.392 0 0 1-12.032 24.064c-72.224 57.184-153.504 58.688-245.28 7.52 19.552 87.296 51.168 152 96.32 194.112z m306.976 535.136h-39.136a60.352 60.352 0 0 1-60.192-60.192v-179.072c0-33.12 27.104-60.192 60.192-60.192h39.136c33.12 0 60.192 27.072 60.192 60.192v179.072a60.384 60.384 0 0 1-60.192 60.192z m216.704 0h-39.136a60.352 60.352 0 0 1-60.192-60.192v-179.072c0-33.12 27.072-60.192 60.192-60.192h39.136c33.12 0 60.192 27.072 60.192 60.192v179.072a60.352 60.352 0 0 1-60.192 60.192z m-39.104-239.264v179.072h39.136v-179.072h-39.136z m-216.704 0v179.072h39.136v-179.072h-39.136z m601.92 349.696H75.456v-183.584h76.736V487.936h809.6v352.128h76.736v183.584zM135.648 963.456h842.72v-63.2h-76.736V548.128H212.416v352.128H135.68v63.2z" p-id="13730"></path></svg>