<?xml version="1.0" standalone="no"?><!DOCTYPE svg PUBLIC "-//W3C//DTD SVG 1.1//EN" "http://www.w3.org/Graphics/SVG/1.1/DTD/svg11.dtd"><svg t="1760441424695" class="icon" viewBox="0 0 1024 1024" version="1.1" xmlns="http://www.w3.org/2000/svg" p-id="11815" xmlns:xlink="http://www.w3.org/1999/xlink" width="200" height="200"><path d="M512 224a48 48 0 1 0 0 96 48 48 0 0 0 0-96z m432 224V270.672L512 59.088 80 270.672V448h80v272H80v240h864V720h-80V448h80z m-80 432H160v-80h80V448h128v272h-64v80h144V448h128v272h-64v80h144V448h128v272h-64v80h144v80zM160 368v-47.424L512 148.176l352 172.4V368H160z" fill="#565D64" p-id="11816"></path></svg>