<?xml version="1.0" standalone="no"?><!DOCTYPE svg PUBLIC "-//W3C//DTD SVG 1.1//EN" "http://www.w3.org/Graphics/SVG/1.1/DTD/svg11.dtd"><svg t="1760441268453" class="icon" viewBox="0 0 1024 1024" version="1.1" xmlns="http://www.w3.org/2000/svg" p-id="4102" xmlns:xlink="http://www.w3.org/1999/xlink" width="200" height="200"><path d="M512 921.6c-221.184 0-401.408-180.224-401.408-401.408S290.816 122.88 512 122.88c16.384 0 32.768 12.288 32.768 32.768C544.768 249.856 602.112 327.68 675.84 327.68c16.384 0 32.768 12.288 32.768 32.768 0 73.728 77.824 131.072 172.032 131.072 16.384 0 32.768 12.288 32.768 32.768 0 217.088-180.224 397.312-401.408 397.312z m-28.672-737.28c-172.032 16.384-307.2 159.744-307.2 335.872 0 184.32 151.552 335.872 335.872 335.872 176.128 0 323.584-135.168 335.872-307.2-102.4-12.288-184.32-77.824-200.704-163.84-86.016-12.288-151.552-94.208-163.84-200.704z m151.552 532.48c-16.384 0-32.768-12.288-32.768-32.768s16.384-28.672 32.768-28.672 32.768 12.288 32.768 32.768-16.384 28.672-32.768 28.672z m-245.76 0c-16.384 0-32.768-12.288-32.768-32.768s16.384-28.672 32.768-28.672 32.768 12.288 32.768 32.768-16.384 28.672-32.768 28.672z m122.88-204.8c-16.384 0-32.768-12.288-32.768-32.768s16.384-28.672 32.768-28.672 32.768 12.288 32.768 32.768-16.384 28.672-32.768 28.672z m-204.8-40.96c-16.384 0-32.768-12.288-32.768-32.768s16.384-28.672 32.768-28.672 32.768 12.288 32.768 32.768-16.384 28.672-32.768 28.672z" p-id="4103"></path></svg>