<?xml version="1.0" standalone="no"?><!DOCTYPE svg PUBLIC "-//W3C//DTD SVG 1.1//EN" "http://www.w3.org/Graphics/SVG/1.1/DTD/svg11.dtd"><svg t="1760441406606" class="icon" viewBox="0 0 1024 1024" version="1.1" xmlns="http://www.w3.org/2000/svg" p-id="10662" xmlns:xlink="http://www.w3.org/1999/xlink" width="200" height="200"><path d="M938.666667 981.333333V502.613333l-298.666667 213.333334v-208L322.56 682.666667l-25.173333-426.666667H236.8A106.666667 106.666667 0 0 1 341.333333 170.666667h213.333334a149.333333 149.333333 0 0 0 149.333333-149.333334h-42.666667a106.666667 106.666667 0 0 1-106.666666 106.666667H341.333333a149.333333 149.333333 0 0 0-147.626666 128h-64l-42.666667 725.333333H0v42.666667h1024v-42.666667h-85.333333zM597.333333 580.053333v218.666667l298.666667-213.333333V981.333333H340.053333l-14.933333-252.16zM169.386667 298.666667h87.68l24.533333 416a21.333333 21.333333 0 0 0 0 7.68L297.386667 981.333333H129.28z" p-id="10663"></path></svg>