<?xml version="1.0" standalone="no"?><!DOCTYPE svg PUBLIC "-//W3C//DTD SVG 1.1//EN" "http://www.w3.org/Graphics/SVG/1.1/DTD/svg11.dtd"><svg t="1760441291501" class="icon" viewBox="0 0 1024 1024" version="1.1" xmlns="http://www.w3.org/2000/svg" p-id="6722" xmlns:xlink="http://www.w3.org/1999/xlink" width="200" height="200"><path d="M547.328 881.728a32 32 0 0 1-44.352 8.928A732.608 732.608 0 0 0 96 768a32 32 0 0 1 0-64 796.448 796.448 0 0 1 442.4 133.376 32 32 0 0 1 8.928 44.352zM96 576a32 32 0 0 0 0 64 859.2 859.2 0 0 1 604.672 246.848 32.064 32.064 0 0 0 54.944-23.008 31.936 31.936 0 0 0-10.144-22.688A922.752 922.752 0 0 0 96 576z m832 64a866.048 866.048 0 0 0-194.368 21.952 1055.04 1055.04 0 0 1 64 52.64A806.4 806.4 0 0 1 928 704a32 32 0 0 1 0 64c-24 0-47.712 1.152-71.392 3.456a1106.24 1106.24 0 0 1 63.744 72.544 31.968 31.968 0 1 1-49.92 40A988 988 0 0 0 96 512a32 32 0 0 1 0-64c64.384 0 128.64 5.856 192 17.472V320a32 32 0 0 1 12.8-25.6l256-192a32 32 0 0 1 38.4 0l256 192a32 32 0 0 1 12.8 25.6v129.952c21.248-1.216 42.56-1.952 64-1.952a32 32 0 0 1 0 64 985.12 985.12 0 0 0-337.024 58.752c25.152 13.344 49.76 27.712 73.824 43.136A928.64 928.64 0 0 1 928 576a32 32 0 0 1 0 64z m-448-288h192a32 32 0 0 1 32 32v87.744c31.68-6.816 63.68-12.16 96-16V336l-224-168-224 168v143.232c32.512 8 64.512 17.6 96 28.736V384a32 32 0 0 1 32-32z m32.288 181.088A1049.408 1049.408 0 0 1 640 487.776V416h-128v116.96l0.288 0.128z" p-id="6723"></path></svg>