<?xml version="1.0" standalone="no"?><!DOCTYPE svg PUBLIC "-//W3C//DTD SVG 1.1//EN" "http://www.w3.org/Graphics/SVG/1.1/DTD/svg11.dtd"><svg t="1760441377320" class="icon" viewBox="0 0 1024 1024" version="1.1" xmlns="http://www.w3.org/2000/svg" p-id="8621" xmlns:xlink="http://www.w3.org/1999/xlink" width="200" height="200"><path d="M1003.054545 784.290909L544.581818 325.818182c4.654545-9.309091 4.654545-18.618182-4.654545-27.927273l-18.618182-18.618182 44.218182-44.218182c51.2-51.2 107.054545-97.745455 167.563636-137.30909l46.545455-30.254546c11.636364-6.981818 13.963636-20.945455 9.309091-30.254545-4.654545-9.309091-11.636364-13.963636-20.945455-13.963637h-6.981818l-27.927273 9.309091c-109.381818 32.581818-211.781818 88.436364-300.218182 160.581818-6.981818-6.981818-18.618182-6.981818-25.6-2.327272L379.345455 162.909091c-13.963636-16.290909-30.254545-23.272727-51.2-23.272727C288.581818 139.636364 256 172.218182 256 211.781818c0 18.618182 6.981818 37.236364 20.945455 51.2l27.927272 27.927273c-4.654545 9.309091-2.327273 18.618182 2.327273 25.6-69.818182 86.109091-123.345455 183.854545-155.927273 288.581818-16.290909 2.327273-32.581818 9.309091-44.218182 20.945455l-41.890909 41.890909c-11.636364 13.963636-18.618182 30.254545-18.618181 48.872727V930.909091c0 9.309091 2.327273 16.290909 4.654545 23.272727H23.272727c-13.963636 0-23.272727 9.309091-23.272727 23.272727s9.309091 23.272727 23.272727 23.272728h791.272728c13.963636 0 23.272727-9.309091 23.272727-23.272728s-9.309091-23.272727-23.272727-23.272727h-46.545455v-41.890909c0-25.6-13.963636-51.2-39.563636-62.836364l-41.890909-20.945454c-6.981818-4.654545-13.963636-11.636364-13.963637-20.945455V791.272727c0-23.272727-11.636364-44.218182-30.254545-58.181818L605.090909 707.490909c-9.309091-4.654545-23.272727-9.309091-37.236364-9.309091h-81.454545c-2.327273-11.636364-9.309091-20.945455-16.290909-30.254545l-41.890909-41.890909c-16.290909-13.963636-32.581818-20.945455-51.2-20.945455H223.418182c37.236364-55.854545 81.454545-107.054545 128-155.927273l44.218182-44.218181 18.618181 18.618181c4.654545 4.654545 11.636364 6.981818 16.29091 6.981819 4.654545 0 6.981818-2.327273 11.636363-2.327273l458.472727 458.472727c13.963636 13.963636 32.581818 20.945455 51.2 20.945455 39.563636 0 72.145455-32.581818 72.145455-72.145455 0-20.945455-6.981818-37.236364-20.945455-51.2zM567.854545 744.727273c4.654545 0 9.309091 2.327273 13.963637 4.654545l37.236363 25.6c6.981818 4.654545 9.309091 11.636364 9.309091 18.618182v16.290909c0 25.6 13.963636 51.2 39.563637 62.836364l41.890909 20.945454c6.981818 4.654545 13.963636 11.636364 13.963636 20.945455V954.181818h-209.454545v-81.454545c0-6.981818-4.654545-11.636364-11.636364-11.636364s-13.963636 4.654545-13.963636 11.636364V954.181818H193.163636l11.636364-46.545454c2.327273-6.981818 4.654545-11.636364 11.636364-13.963637l83.781818-48.872727c16.290909-9.309091 27.927273-25.6 32.581818-41.890909l9.309091-39.563636c2.327273-9.309091 11.636364-18.618182 23.272727-18.618182H395.636364v58.181818c0 6.981818 4.654545 11.636364 11.636363 11.636364s11.636364-4.654545 11.636364-11.636364V744.727273h148.945454z m-190.836363-93.090909c6.981818 0 11.636364 2.327273 16.290909 6.981818l39.563636 39.563636h-69.818182c-32.581818 0-60.509091 20.945455-67.490909 53.527273l-11.636363 39.563636c-2.327273 6.981818-4.654545 11.636364-11.636364 13.963637l-83.781818 48.872727c-16.290909 9.309091-27.927273 25.6-32.581818 41.890909L144.290909 954.181818H116.363636c-13.963636 0-23.272727-9.309091-23.272727-23.272727v-214.109091c0-6.981818 2.327273-11.636364 6.981818-16.290909l41.890909-41.890909c4.654545-4.654545 11.636364-6.981818 16.290909-6.981818H186.181818v81.454545c0 6.981818 4.654545 11.636364 11.636364 11.636364s11.636364-4.654545 11.636363-11.636364V651.636364h167.563637z m232.727273-518.981819c-25.6 20.945455-51.2 44.218182-76.8 69.818182L488.727273 246.690909l-20.945455-20.945454c44.218182-37.236364 90.763636-67.490909 141.963637-93.09091zM302.545455 211.781818c0-13.963636 11.636364-25.6 25.6-25.6 6.981818 0 13.963636 2.327273 18.618181 6.981818l27.927273 27.927273-37.236364 37.236364-27.927272-27.927273c-4.654545-4.654545-6.981818-11.636364-6.981818-18.618182z m16.290909 204.8c-23.272727 23.272727-46.545455 48.872727-69.818182 76.8 25.6-51.2 55.854545-97.745455 93.090909-141.963636l20.945454 20.945454-44.218181 44.218182z m111.709091-41.890909L358.4 302.545455l60.509091-60.509091 72.145454 72.145454-60.50909 60.509091zM951.854545 861.090909c-6.981818 0-13.963636-2.327273-18.618181-6.981818L474.763636 395.636364l37.236364-37.236364 458.472727 458.472727c4.654545 4.654545 6.981818 11.636364 6.981818 18.618182 0 13.963636-11.636364 25.6-25.6 25.6z" p-id="8622"></path><path d="M23.272727 581.818182h69.818182c13.963636 0 23.272727-9.309091 23.272727-23.272727s-9.309091-23.272727-23.272727-23.272728H23.272727c-13.963636 0-23.272727 9.309091-23.272727 23.272728s9.309091 23.272727 23.272727 23.272727zM121.018182 502.690909c4.654545 4.654545 11.636364 9.309091 18.618182 9.309091 4.654545 0 9.309091-2.327273 13.963636-4.654545 11.636364-6.981818 13.963636-20.945455 6.981818-32.581819l-46.545454-69.818181c-6.981818-11.636364-20.945455-13.963636-32.581819-6.981819-11.636364 6.981818-13.963636 20.945455-6.981818 32.581819l46.545455 72.145454zM363.054545 514.327273l-46.545454 23.272727c-11.636364 4.654545-16.290909 18.618182-9.309091 30.254545 4.654545 9.309091 11.636364 13.963636 20.945455 13.963637 2.327273 0 6.981818 0 9.30909-2.327273l46.545455-23.272727c11.636364-4.654545 16.290909-18.618182 9.309091-30.254546-6.981818-11.636364-20.945455-16.290909-30.254546-11.636363z" p-id="8623"></path><path d="M407.272727 849.454545m-11.636363 0a11.636364 11.636364 0 1 0 23.272727 0 11.636364 11.636364 0 1 0-23.272727 0Z" p-id="8624"></path><path d="M477.090909 779.636364m-11.636364 0a11.636364 11.636364 0 1 0 23.272728 0 11.636364 11.636364 0 1 0-23.272728 0Z" p-id="8625"></path><path d="M151.272727 733.090909m-11.636363 0a11.636364 11.636364 0 1 0 23.272727 0 11.636364 11.636364 0 1 0-23.272727 0Z" p-id="8626"></path><path d="M570.181818 896m-11.636363 0a11.636364 11.636364 0 1 0 23.272727 0 11.636364 11.636364 0 1 0-23.272727 0Z" p-id="8627"></path><path d="M290.909091 896m-11.636364 0a11.636364 11.636364 0 1 0 23.272728 0 11.636364 11.636364 0 1 0-23.272728 0Z" p-id="8628"></path><path d="M546.909091 826.181818m-11.636364 0a11.636364 11.636364 0 1 0 23.272728 0 11.636364 11.636364 0 1 0-23.272728 0Z" p-id="8629"></path><path d="M197.818182 779.636364m-11.636364 0a11.636364 11.636364 0 1 0 23.272727 0 11.636364 11.636364 0 1 0-23.272727 0Z" p-id="8630"></path><path d="M267.636364 709.818182m-11.636364 0a11.636364 11.636364 0 1 0 23.272727 0 11.636364 11.636364 0 1 0-23.272727 0Z" p-id="8631"></path><path d="M128 849.454545m-11.636364 0a11.636364 11.636364 0 1 0 23.272728 0 11.636364 11.636364 0 1 0-23.272728 0Z" p-id="8632"></path><path d="M360.727273 884.363636c-6.981818 0-11.636364 4.654545-11.636364 11.636364v23.272727c0 6.981818 4.654545 11.636364 11.636364 11.636364s11.636364-4.654545 11.636363-11.636364v-23.272727c0-6.981818-4.654545-11.636364-11.636363-11.636364z" p-id="8633"></path></svg>