<?xml version="1.0" standalone="no"?><!DOCTYPE svg PUBLIC "-//W3C//DTD SVG 1.1//EN" "http://www.w3.org/Graphics/SVG/1.1/DTD/svg11.dtd"><svg t="1759922167979" class="icon" viewBox="0 0 1117 1024" version="1.1" xmlns="http://www.w3.org/2000/svg" p-id="7386" xmlns:xlink="http://www.w3.org/1999/xlink" width="218.1640625" height="200"><path d="M523.357091 950.737455H53.899636a36.165818 36.165818 0 0 0 0 72.192h469.457455a36.165818 36.165818 0 0 0 0-72.192z m540.951273-279.738182l-438.178909-230.539637 97.88509-169.565091a72.238545 72.238545 0 0 0-26.391272-98.629818L416.162909 9.774545a72.238545 72.238545 0 0 0-98.629818 26.391273L10.472727 567.714909a72.238545 72.238545 0 0 0 26.391273 98.676364l281.506909 162.443636a72.238545 72.238545 0 0 0 98.583273-26.344727l98.397091-170.496 422.446545 257.861818a36.119273 36.119273 0 0 0 49.338182-13.218909l90.251636-156.346182a35.84 35.84 0 0 0-13.079272-49.338182z m-691.665455 64.093091a36.119273 36.119273 0 0 1-49.338182 13.218909L104.401455 621.847273a36.119273 36.119273 0 0 1-13.172364-49.291637L361.984 103.517091a36.119273 36.119273 0 0 1 49.338182-13.172364l218.856727 126.370909c17.221818 9.960727 23.133091 32.069818 13.172364 49.338182L372.642909 735.045818z m570.135273 74.193454l-390.283637-241.291636 36.119273-62.510546 408.343273 210.059637-54.178909 93.742545z" fill="#000000" p-id="7387"></path></svg>