<?xml version="1.0" standalone="no"?><!DOCTYPE svg PUBLIC "-//W3C//DTD SVG 1.1//EN" "http://www.w3.org/Graphics/SVG/1.1/DTD/svg11.dtd"><svg t="1759922139982" class="icon" viewBox="0 0 1031 1024" version="1.1" xmlns="http://www.w3.org/2000/svg" p-id="5231" xmlns:xlink="http://www.w3.org/1999/xlink" width="201.3671875" height="200"><path d="M433.40366 49.665879c7.826208 37.528917 19.594336 62.655771 36.8143 78.884491a197.280385 197.280385 0 0 0 21.058148 17.208438c-20.746944 98.23678 11.52608 201.787083 84.636006 270.586254a287.368227 287.368227 0 0 0 197.683798 78.377344 290.584003 290.584003 0 0 0 84.290223-12.459692 212.079872 212.079872 0 0 0 36.66446 45.689381c21.588348 20.320479 49.769613 32.745593 83.806128 36.952612C950.094775 798.91871 751.903829 974.898899 515.561559 974.898899c-9.220864 0-18.568515-0.276626-27.812431-0.806825C255.417933 960.652664 67.404516 775.636028 50.392022 543.719772 32.768645 303.297269 197.222755 91.56318 433.40366 49.665879M436.319759 0a44.951712 44.951712 0 0 0-7.526531 0.633934C173.167826 43.960469-18.533937 275.046847 1.429234 547.315909c18.683776 254.841629 228.389275 461.0432 483.484478 475.796583q15.421895 0.887508 30.647847 0.887508c265.09984 0 483.230904-200.196484 512.023052-457.643007a45.355125 45.355125 0 0 0-40.272124-49.850296c-23.409468-2.420477-43.925891-9.981585-59.140316-24.308502a162.679093 162.679093 0 0 1-28.8152-36.157313 46.599941 46.599941 0 0 0-40.491119-23.190473 49.677405 49.677405 0 0 0-14.568965 2.213007 241.40222 241.40222 0 0 1-70.724027 10.592467 239.742464 239.742464 0 0 1-233.979424-291.068098c3.953445-18.153576-2.662524-36.987191-17.980685-47.510502a148.225389 148.225389 0 0 1-17.750163-14.257761c-11.687445-10.99588-18.822089-34.935549-23.05216-56.385583a45.493438 45.493438 0 0 0-44.490669-36.422413zM1031.123117 508.438441c0 2.501159-0.334256 4.91011-0.368834 7.388218 0-2.489633 0.368835-4.898584 0.368834-7.388218z" fill="" p-id="5232"></path><path d="M282.33133 520.713716m-36.825826 0a36.825826 36.825826 0 1 0 73.651651 0 36.825826 36.825826 0 1 0-73.651651 0Z" fill="" p-id="5233"></path><path d="M650.589586 643.466469m-36.825826 0a36.825826 36.825826 0 1 0 73.651652 0 36.825826 36.825826 0 1 0-73.651652 0Z" fill="" p-id="5234"></path><path d="M380.533531 839.870872m-36.825825 0a36.825826 36.825826 0 1 0 73.651651 0 36.825826 36.825826 0 1 0-73.651651 0Z" fill="" p-id="5235"></path><path d="M405.084082 324.309313m-12.275275 0a12.275275 12.275275 0 1 0 24.55055 0 12.275275 12.275275 0 1 0-24.55055 0Z" fill="" p-id="5236"></path><path d="M797.892888 717.11812m-12.275275 0a12.275275 12.275275 0 1 0 24.550551 0 12.275275 12.275275 0 1 0-24.550551 0Z" fill="" p-id="5237"></path><path d="M478.735733 668.017019m-12.275275 0a12.275275 12.275275 0 1 0 24.55055 0 12.275275 12.275275 0 1 0-24.55055 0Z" fill="" p-id="5238"></path></svg>